<svg width="300" height="300" viewBox="0 0 300 300" fill="none" xmlns="http://www.w3.org/2000/svg">
<path d="M0 150C0 67.1573 67.1573 0 150 0V0C232.843 0 300 67.1573 300 150V150C300 232.843 232.843 300 150 300V300C67.1573 300 0 232.843 0 150V150Z" fill="#FF8F02"/>
<path d="M67.5 145.48L66.132 165.46C66.108 165.82 65.976 166 65.736 166H63.756C62.412 166 61.452 165.736 60.876 165.208C60.3 164.68 60.012 163.924 60.012 162.94C60.012 162.58 60.024 162.04 60.048 161.32C60.096 160.6 60.156 159.76 60.228 158.8C60.3 157.816 60.372 156.76 60.444 155.632C60.54 154.48 60.636 153.328 60.732 152.176C60.828 151 60.912 149.836 60.984 148.684C61.08 147.532 61.164 146.464 61.236 145.48H55.476C55.212 145.48 55.08 145.312 55.08 144.976L55.188 142.96C55.212 142.648 55.26 142.348 55.332 142.06C55.428 141.748 55.572 141.472 55.764 141.232C55.956 140.992 56.196 140.8 56.484 140.656C56.796 140.512 57.168 140.44 57.6 140.44H73.692C73.836 140.44 73.968 140.476 74.088 140.548C74.208 140.62 74.268 140.752 74.268 140.944L74.124 143.068C74.076 143.788 73.872 144.376 73.512 144.832C73.176 145.264 72.468 145.48 71.388 145.48H67.5ZM71.9038 161.572C71.9038 159.412 72.8758 157.72 74.8198 156.496C76.7638 155.272 79.6318 154.612 83.4238 154.516C83.4478 154.252 83.4598 154.036 83.4598 153.868C83.4838 153.676 83.4958 153.448 83.4958 153.184C83.4958 152.416 83.3518 151.804 83.0638 151.348C82.7758 150.892 82.1758 150.664 81.2638 150.664C80.7598 150.664 80.3518 150.736 80.0398 150.88C79.7278 151.024 79.4758 151.228 79.2838 151.492C79.0918 151.732 78.9358 152.032 78.8158 152.392C78.6958 152.752 78.5878 153.148 78.4918 153.58C78.4438 153.796 78.3358 153.94 78.1678 154.012C77.9998 154.06 77.7358 154.084 77.3758 154.084C74.9278 154.084 73.7038 153.16 73.7038 151.312C73.7038 150.568 73.8718 149.86 74.2078 149.188C74.5678 148.516 75.0838 147.94 75.7558 147.46C76.4518 146.956 77.3158 146.56 78.3478 146.272C79.3798 145.984 80.5798 145.84 81.9478 145.84C84.6118 145.84 86.5438 146.392 87.7438 147.496C88.9438 148.6 89.5438 150.16 89.5438 152.176C89.5438 152.44 89.5078 152.92 89.4358 153.616C89.3878 154.288 89.3158 155.008 89.2198 155.776C89.1478 156.52 89.0758 157.228 89.0038 157.9C88.9558 158.572 88.9318 159.04 88.9318 159.304C88.9318 159.904 89.0398 160.336 89.2558 160.6C89.4718 160.84 89.7118 161.008 89.9758 161.104C90.2638 161.2 90.5158 161.272 90.7318 161.32C90.9478 161.368 91.0558 161.488 91.0558 161.68C91.0558 162.208 90.9838 162.748 90.8398 163.3C90.6958 163.852 90.4558 164.356 90.1198 164.812C89.8078 165.268 89.3638 165.64 88.7878 165.928C88.2358 166.216 87.5518 166.36 86.7358 166.36C85.5838 166.36 84.7198 166.084 84.1438 165.532C83.5678 164.98 83.1838 164.212 82.9918 163.228C82.4158 164.068 81.6598 164.8 80.7238 165.424C79.8118 166.048 78.6118 166.36 77.1238 166.36C76.4038 166.36 75.7198 166.276 75.0718 166.108C74.4478 165.94 73.8958 165.664 73.4158 165.28C72.9598 164.896 72.5878 164.404 72.2998 163.804C72.0358 163.18 71.9038 162.436 71.9038 161.572ZM83.0998 157.468C82.4758 157.468 81.8638 157.516 81.2638 157.612C80.6638 157.708 80.1238 157.864 79.6438 158.08C79.1878 158.272 78.8158 158.536 78.5278 158.872C78.2398 159.208 78.0958 159.616 78.0958 160.096C78.0958 160.648 78.2638 161.032 78.5998 161.248C78.9598 161.464 79.3438 161.572 79.7518 161.572C80.1358 161.572 80.5198 161.488 80.9038 161.32C81.2878 161.152 81.6238 160.9 81.9118 160.564C82.2238 160.204 82.4878 159.772 82.7038 159.268C82.9198 158.764 83.0518 158.164 83.0998 157.468ZM101.657 145.84C103.697 145.84 105.197 146.248 106.157 147.064C107.117 147.856 107.597 148.876 107.597 150.124C107.597 151.18 107.261 151.984 106.589 152.536C105.941 153.088 104.993 153.364 103.745 153.364C103.409 153.364 103.181 153.328 103.061 153.256C102.941 153.184 102.881 153.052 102.881 152.86C102.881 152.644 102.857 152.404 102.809 152.14C102.785 151.852 102.701 151.588 102.557 151.348C102.437 151.084 102.233 150.868 101.945 150.7C101.681 150.532 101.297 150.448 100.793 150.448C100.121 150.448 99.581 150.616 99.173 150.952C98.765 151.264 98.561 151.66 98.561 152.14C98.561 152.644 98.765 153.052 99.173 153.364C99.605 153.652 100.133 153.928 100.757 154.192C101.405 154.456 102.101 154.732 102.845 155.02C103.589 155.284 104.273 155.644 104.897 156.1C105.545 156.556 106.073 157.132 106.481 157.828C106.913 158.5 107.129 159.376 107.129 160.456C107.129 162.184 106.517 163.6 105.293 164.704C104.069 165.808 102.233 166.36 99.785 166.36C99.113 166.36 98.333 166.3 97.445 166.18C96.581 166.084 95.753 165.928 94.961 165.712C94.169 165.472 93.497 165.16 92.945 164.776C92.417 164.392 92.153 163.912 92.153 163.336C92.153 163.12 92.189 162.856 92.261 162.544C92.357 162.232 92.489 161.932 92.657 161.644C92.849 161.356 93.065 161.116 93.305 160.924C93.569 160.708 93.881 160.6 94.241 160.6C94.529 160.6 94.793 160.672 95.033 160.816C95.273 160.96 95.549 161.116 95.861 161.284C96.197 161.428 96.605 161.572 97.085 161.716C97.565 161.86 98.201 161.932 98.993 161.932C99.593 161.932 100.121 161.86 100.577 161.716C101.057 161.572 101.297 161.248 101.297 160.744C101.297 160.288 101.105 159.928 100.721 159.664C100.337 159.376 99.845 159.112 99.245 158.872C98.669 158.632 98.033 158.38 97.337 158.116C96.665 157.828 96.029 157.456 95.429 157C94.853 156.544 94.373 155.968 93.989 155.272C93.605 154.552 93.413 153.628 93.413 152.5C93.413 151.276 93.653 150.244 94.133 149.404C94.637 148.54 95.273 147.844 96.041 147.316C96.833 146.788 97.721 146.416 98.705 146.2C99.689 145.96 100.673 145.84 101.657 145.84ZM117.919 151.06C117.847 151.972 117.763 152.872 117.667 153.76C117.595 154.648 117.523 155.488 117.451 156.28C117.379 157.072 117.319 157.78 117.271 158.404C117.247 159.028 117.235 159.508 117.235 159.844C117.235 160.468 117.307 160.888 117.451 161.104C117.595 161.296 117.835 161.392 118.171 161.392C118.435 161.392 118.663 161.344 118.855 161.248C119.047 161.152 119.227 161.044 119.395 160.924C119.563 160.804 119.707 160.696 119.827 160.6C119.971 160.504 120.127 160.456 120.295 160.456C120.463 160.456 120.619 160.552 120.763 160.744C120.907 160.936 120.979 161.38 120.979 162.076C120.979 163.396 120.619 164.44 119.899 165.208C119.179 165.976 117.943 166.36 116.191 166.36C114.463 166.36 113.179 165.964 112.339 165.172C111.523 164.356 111.115 163.12 111.115 161.464C111.115 161.104 111.127 160.684 111.151 160.204C111.199 159.7 111.259 159.052 111.331 158.26C111.403 157.468 111.487 156.496 111.583 155.344C111.703 154.192 111.823 152.764 111.943 151.06H110.035C109.843 151.06 109.723 151.024 109.675 150.952C109.651 150.856 109.639 150.724 109.639 150.556L109.747 148.72C109.771 148.408 109.807 148.108 109.855 147.82C109.927 147.508 110.047 147.232 110.215 146.992C110.407 146.752 110.671 146.56 111.007 146.416C111.343 146.272 111.787 146.2 112.339 146.2C112.507 145.768 112.699 145.252 112.915 144.652C113.131 144.052 113.347 143.476 113.563 142.924C113.779 142.348 113.983 141.868 114.175 141.484C114.391 141.1 114.583 140.908 114.751 140.908H115.795C116.803 140.908 117.499 141.22 117.883 141.844C118.267 142.468 118.459 143.212 118.459 144.076C118.459 144.556 118.423 145.264 118.351 146.2H122.131C122.515 146.2 122.707 146.368 122.707 146.704L122.563 148.648C122.515 149.368 122.311 149.956 121.951 150.412C121.615 150.844 120.907 151.06 119.827 151.06H117.919ZM131.434 149.512C131.434 150.064 131.398 150.724 131.326 151.492C131.254 152.236 131.17 152.992 131.074 153.76C131.002 154.504 130.93 155.212 130.858 155.884C130.786 156.532 130.75 157.036 130.75 157.396C130.75 158.308 130.966 158.992 131.398 159.448C131.854 159.88 132.406 160.096 133.054 160.096C134.182 160.096 135.082 159.508 135.754 158.332C136.426 157.156 136.846 155.596 137.014 153.652L137.59 146.92C137.614 146.656 137.698 146.476 137.842 146.38C138.01 146.26 138.19 146.2 138.382 146.2H139.678C140.182 146.2 140.65 146.248 141.082 146.344C141.538 146.416 141.934 146.572 142.27 146.812C142.606 147.028 142.87 147.328 143.062 147.712C143.254 148.096 143.35 148.588 143.35 149.188C143.35 149.428 143.326 149.884 143.278 150.556C143.254 151.204 143.194 152.152 143.098 153.4C143.026 154.624 142.918 156.184 142.774 158.08C142.63 159.952 142.462 162.244 142.27 164.956C142.15 166.54 141.79 167.848 141.19 168.88C140.614 169.936 139.882 170.764 138.994 171.364C138.106 171.988 137.11 172.42 136.006 172.66C134.902 172.9 133.774 173.02 132.622 173.02C131.398 173.02 130.27 172.912 129.238 172.696C128.23 172.48 127.354 172.18 126.61 171.796C125.866 171.412 125.278 170.968 124.846 170.464C124.438 169.96 124.234 169.42 124.234 168.844C124.234 168.388 124.33 167.992 124.522 167.656C124.738 167.32 125.014 167.044 125.35 166.828C125.686 166.612 126.07 166.444 126.502 166.324C126.958 166.228 127.426 166.18 127.906 166.18C128.146 166.18 128.314 166.3 128.41 166.54C128.53 166.78 128.698 167.044 128.914 167.332C129.154 167.644 129.526 167.92 130.03 168.16C130.534 168.4 131.29 168.52 132.298 168.52C133.186 168.52 133.906 168.304 134.458 167.872C135.01 167.44 135.43 166.888 135.718 166.216C136.03 165.544 136.234 164.812 136.33 164.02C136.426 163.228 136.474 162.472 136.474 161.752C136.09 162.424 135.658 162.976 135.178 163.408C134.722 163.816 134.242 164.14 133.738 164.38C133.234 164.596 132.73 164.74 132.226 164.812C131.722 164.884 131.242 164.92 130.786 164.92C129.898 164.92 129.082 164.8 128.338 164.56C127.618 164.32 126.994 163.936 126.466 163.408C125.938 162.856 125.53 162.148 125.242 161.284C124.954 160.42 124.81 159.376 124.81 158.152C124.81 157.696 124.834 157.096 124.882 156.352C124.93 155.584 124.99 154.732 125.062 153.796C125.134 152.836 125.206 151.804 125.278 150.7C125.374 149.596 125.47 148.468 125.566 147.316C125.614 146.572 125.95 146.2 126.574 146.2H127.726C128.494 146.2 129.118 146.272 129.598 146.416C130.078 146.56 130.45 146.776 130.714 147.064C131.002 147.328 131.194 147.676 131.29 148.108C131.386 148.516 131.434 148.984 131.434 149.512ZM156.832 145.48L155.464 165.46C155.44 165.82 155.308 166 155.068 166H153.088C151.744 166 150.784 165.736 150.208 165.208C149.632 164.68 149.344 163.924 149.344 162.94C149.344 162.58 149.356 162.04 149.38 161.32C149.428 160.6 149.488 159.76 149.56 158.8C149.632 157.816 149.704 156.76 149.776 155.632C149.872 154.48 149.968 153.328 150.064 152.176C150.16 151 150.244 149.836 150.316 148.684C150.412 147.532 150.496 146.464 150.568 145.48H144.808C144.544 145.48 144.412 145.312 144.412 144.976L144.52 142.96C144.544 142.648 144.592 142.348 144.664 142.06C144.76 141.748 144.904 141.472 145.096 141.232C145.288 140.992 145.528 140.8 145.816 140.656C146.128 140.512 146.5 140.44 146.932 140.44H163.024C163.168 140.44 163.3 140.476 163.42 140.548C163.54 140.62 163.6 140.752 163.6 140.944L163.456 143.068C163.408 143.788 163.204 144.376 162.844 144.832C162.508 145.264 161.8 145.48 160.72 145.48H156.832ZM174.612 154.804C174.468 154.804 174.3 154.804 174.108 154.804C173.94 154.78 173.772 154.756 173.604 154.732C173.436 154.684 173.292 154.636 173.172 154.588C173.052 154.516 172.992 154.432 172.992 154.336C172.992 154.024 173.004 153.736 173.028 153.472C173.052 153.208 173.064 152.932 173.064 152.644C173.064 152.116 172.992 151.684 172.848 151.348C172.704 151.012 172.416 150.844 171.984 150.844C171.312 150.844 170.748 151.288 170.292 152.176C169.86 153.04 169.584 154.348 169.464 156.1C169.416 156.868 169.344 157.744 169.248 158.728C169.176 159.688 169.104 160.624 169.032 161.536C168.96 162.424 168.9 163.216 168.852 163.912C168.804 164.608 168.78 165.064 168.78 165.28C168.78 165.52 168.696 165.7 168.528 165.82C168.36 165.94 168.18 166 167.988 166H166.692C165.948 166 165.336 165.928 164.856 165.784C164.4 165.616 164.028 165.388 163.74 165.1C163.476 164.812 163.284 164.464 163.164 164.056C163.068 163.624 163.02 163.132 163.02 162.58C163.02 162.22 163.032 161.716 163.056 161.068C163.104 160.396 163.176 159.484 163.272 158.332C163.368 157.156 163.476 155.68 163.596 153.904C163.74 152.104 163.908 149.884 164.1 147.244C164.148 146.548 164.4 146.2 164.856 146.2H166.26C166.932 146.2 167.496 146.272 167.952 146.416C168.408 146.56 168.78 146.764 169.068 147.028C169.356 147.268 169.56 147.556 169.68 147.892C169.824 148.228 169.92 148.576 169.968 148.936C170.256 148.384 170.592 147.916 170.976 147.532C171.384 147.124 171.804 146.8 172.236 146.56C172.668 146.296 173.112 146.116 173.568 146.02C174.024 145.9 174.444 145.84 174.828 145.84C175.284 145.84 175.74 145.924 176.196 146.092C176.676 146.26 177.108 146.512 177.492 146.848C177.876 147.184 178.176 147.616 178.392 148.144C178.632 148.672 178.752 149.296 178.752 150.016C178.752 150.664 178.656 151.276 178.464 151.852C178.272 152.428 177.996 152.944 177.636 153.4C177.276 153.832 176.832 154.18 176.304 154.444C175.8 154.684 175.236 154.804 174.612 154.804ZM188.274 166.36C186.618 166.36 185.238 166.132 184.134 165.676C183.054 165.196 182.19 164.548 181.542 163.732C180.894 162.916 180.438 161.968 180.174 160.888C179.91 159.784 179.778 158.608 179.778 157.36C179.778 155.92 179.946 154.516 180.282 153.148C180.642 151.756 181.242 150.52 182.082 149.44C182.922 148.36 184.026 147.496 185.394 146.848C186.786 146.176 188.514 145.84 190.578 145.84C193.602 145.84 195.762 146.584 197.058 148.072C198.378 149.536 199.038 151.6 199.038 154.264C199.038 155.008 198.978 155.836 198.858 156.748C198.762 157.636 198.558 158.524 198.246 159.412C197.958 160.3 197.55 161.164 197.022 162.004C196.518 162.844 195.87 163.588 195.078 164.236C194.286 164.884 193.326 165.4 192.198 165.784C191.094 166.168 189.786 166.36 188.274 166.36ZM189.966 150.628C189.054 150.628 188.322 150.868 187.77 151.348C187.242 151.804 186.834 152.368 186.546 153.04C186.282 153.688 186.102 154.384 186.006 155.128C185.934 155.848 185.898 156.46 185.898 156.964C185.898 158.548 186.15 159.712 186.654 160.456C187.158 161.2 187.878 161.572 188.814 161.572C189.654 161.572 190.338 161.308 190.866 160.78C191.418 160.252 191.838 159.616 192.126 158.872C192.438 158.128 192.642 157.348 192.738 156.532C192.858 155.716 192.918 155.032 192.918 154.48C192.918 153.28 192.69 152.344 192.234 151.672C191.802 150.976 191.046 150.628 189.966 150.628ZM209.618 161.428C209.906 160.42 210.17 159.424 210.41 158.44C210.674 157.456 210.926 156.412 211.166 155.308C211.43 154.18 211.706 152.956 211.994 151.636C212.306 150.292 212.666 148.768 213.074 147.064C213.146 146.728 213.254 146.512 213.398 146.416C213.542 146.296 213.854 146.236 214.334 146.236C214.694 146.236 215.174 146.248 215.774 146.272C216.374 146.296 216.962 146.38 217.538 146.524C218.114 146.668 218.606 146.884 219.014 147.172C219.446 147.46 219.662 147.856 219.662 148.36C219.662 148.768 219.518 149.428 219.23 150.34C218.942 151.252 218.57 152.296 218.114 153.472C217.658 154.624 217.142 155.836 216.566 157.108C216.014 158.38 215.474 159.58 214.946 160.708C214.418 161.836 213.926 162.832 213.47 163.696C213.014 164.536 212.678 165.124 212.462 165.46C212.27 165.724 212.102 165.88 211.958 165.928C211.814 165.976 211.574 166 211.238 166H208.034C207.53 166 207.11 165.916 206.774 165.748C206.462 165.556 206.198 165.316 205.982 165.028C205.766 164.74 205.586 164.416 205.442 164.056C205.298 163.672 205.166 163.276 205.046 162.868C204.35 160.468 203.738 158.416 203.21 156.712C202.706 154.984 202.274 153.544 201.914 152.392C201.554 151.24 201.266 150.328 201.05 149.656C200.834 148.96 200.666 148.432 200.546 148.072C200.426 147.688 200.342 147.436 200.294 147.316C200.246 147.172 200.222 147.076 200.222 147.028C200.246 146.86 200.366 146.68 200.582 146.488C200.798 146.296 201.074 146.2 201.41 146.2C202.514 146.2 203.45 146.248 204.218 146.344C205.01 146.416 205.658 146.56 206.162 146.776C206.69 146.992 207.086 147.292 207.35 147.676C207.638 148.06 207.842 148.564 207.962 149.188C207.986 149.356 208.034 149.692 208.106 150.196C208.178 150.7 208.25 151.312 208.322 152.032C208.418 152.728 208.526 153.508 208.646 154.372C208.766 155.212 208.874 156.064 208.97 156.928C209.09 157.768 209.198 158.584 209.294 159.376C209.414 160.168 209.522 160.852 209.618 161.428ZM229.554 166.36C228.498 166.36 227.442 166.228 226.386 165.964C225.354 165.7 224.418 165.244 223.578 164.596C222.762 163.948 222.09 163.084 221.562 162.004C221.034 160.924 220.77 159.568 220.77 157.936C220.77 157.336 220.818 156.616 220.914 155.776C221.01 154.936 221.19 154.072 221.454 153.184C221.742 152.296 222.126 151.42 222.606 150.556C223.11 149.668 223.758 148.876 224.55 148.18C225.342 147.484 226.302 146.92 227.43 146.488C228.558 146.056 229.902 145.84 231.462 145.84C232.71 145.84 233.766 145.984 234.63 146.272C235.494 146.56 236.19 146.956 236.718 147.46C237.246 147.94 237.63 148.504 237.87 149.152C238.11 149.8 238.23 150.496 238.23 151.24C238.23 152.344 238.002 153.28 237.546 154.048C237.114 154.816 236.538 155.464 235.818 155.992C235.122 156.496 234.342 156.892 233.478 157.18C232.614 157.468 231.762 157.696 230.922 157.864C230.082 158.008 229.302 158.104 228.582 158.152C227.886 158.176 227.346 158.188 226.962 158.188C226.962 158.644 227.022 159.1 227.142 159.556C227.286 159.988 227.49 160.372 227.754 160.708C228.018 161.044 228.366 161.32 228.798 161.536C229.23 161.752 229.758 161.86 230.382 161.86C231.006 161.86 231.486 161.764 231.822 161.572C232.182 161.356 232.47 161.128 232.686 160.888C232.902 160.624 233.082 160.396 233.226 160.204C233.394 159.988 233.61 159.88 233.874 159.88C233.994 159.88 234.198 159.916 234.486 159.988C234.798 160.036 235.11 160.156 235.422 160.348C235.734 160.54 236.01 160.804 236.25 161.14C236.49 161.476 236.61 161.908 236.61 162.436C236.61 163.132 236.394 163.732 235.962 164.236C235.53 164.74 234.966 165.148 234.27 165.46C233.598 165.772 232.842 166 232.002 166.144C231.162 166.288 230.346 166.36 229.554 166.36ZM230.238 150.628C229.71 150.628 229.254 150.784 228.87 151.096C228.51 151.384 228.198 151.756 227.934 152.212C227.694 152.668 227.502 153.172 227.358 153.724C227.238 154.276 227.142 154.804 227.07 155.308C228.558 155.284 229.758 155.032 230.67 154.552C231.606 154.072 232.074 153.388 232.074 152.5C232.074 152.02 231.918 151.588 231.606 151.204C231.318 150.82 230.862 150.628 230.238 150.628Z" fill="white"/>
</svg>
