<svg width="183" height="87" viewBox="0 0 183 87" fill="none" xmlns="http://www.w3.org/2000/svg">
<path d="M0 3C0 1.34315 1.34315 0 3 0H180C181.657 0 183 1.34315 183 3V73C183 80.732 176.732 87 169 87H3C1.34314 87 0 85.6569 0 84V3Z" fill="#FF8F02"/>
<path d="M39 39.32L38.088 52.64C38.072 52.88 37.984 53 37.824 53H36.504C35.608 53 34.968 52.824 34.584 52.472C34.2 52.12 34.008 51.616 34.008 50.96C34.008 50.72 34.016 50.36 34.032 49.88C34.064 49.4 34.104 48.84 34.152 48.2C34.2 47.544 34.248 46.84 34.296 46.088C34.36 45.32 34.424 44.552 34.488 43.784C34.552 43 34.608 42.224 34.656 41.456C34.72 40.688 34.776 39.976 34.824 39.32H30.984C30.808 39.32 30.72 39.208 30.72 38.984L30.792 37.64C30.808 37.432 30.84 37.232 30.888 37.04C30.952 36.832 31.048 36.648 31.176 36.488C31.304 36.328 31.464 36.2 31.656 36.104C31.864 36.008 32.112 35.96 32.4 35.96H43.128C43.224 35.96 43.312 35.984 43.392 36.032C43.472 36.08 43.512 36.168 43.512 36.296L43.416 37.712C43.384 38.192 43.248 38.584 43.008 38.888C42.784 39.176 42.312 39.32 41.592 39.32H39ZM41.9359 50.048C41.9359 48.608 42.5839 47.48 43.8799 46.664C45.1759 45.848 47.0879 45.408 49.6159 45.344C49.6319 45.168 49.6399 45.024 49.6399 44.912C49.6559 44.784 49.6639 44.632 49.6639 44.456C49.6639 43.944 49.5679 43.536 49.3759 43.232C49.1839 42.928 48.7839 42.776 48.1759 42.776C47.8399 42.776 47.5679 42.824 47.3599 42.92C47.1519 43.016 46.9839 43.152 46.8559 43.328C46.7279 43.488 46.6239 43.688 46.5439 43.928C46.4639 44.168 46.3919 44.432 46.3279 44.72C46.2959 44.864 46.2239 44.96 46.1119 45.008C45.9999 45.04 45.8239 45.056 45.5839 45.056C43.9519 45.056 43.1359 44.44 43.1359 43.208C43.1359 42.712 43.2479 42.24 43.4719 41.792C43.7119 41.344 44.0559 40.96 44.5039 40.64C44.9679 40.304 45.5439 40.04 46.2319 39.848C46.9199 39.656 47.7199 39.56 48.6319 39.56C50.4079 39.56 51.6959 39.928 52.4959 40.664C53.2959 41.4 53.6959 42.44 53.6959 43.784C53.6959 43.96 53.6719 44.28 53.6239 44.744C53.5919 45.192 53.5439 45.672 53.4799 46.184C53.4319 46.68 53.3839 47.152 53.3359 47.6C53.3039 48.048 53.2879 48.36 53.2879 48.536C53.2879 48.936 53.3599 49.224 53.5039 49.4C53.6479 49.56 53.8079 49.672 53.9839 49.736C54.1759 49.8 54.3439 49.848 54.4879 49.88C54.6319 49.912 54.7039 49.992 54.7039 50.12C54.7039 50.472 54.6559 50.832 54.5599 51.2C54.4639 51.568 54.3039 51.904 54.0799 52.208C53.8719 52.512 53.5759 52.76 53.1919 52.952C52.8239 53.144 52.3679 53.24 51.8239 53.24C51.0559 53.24 50.4799 53.056 50.0959 52.688C49.7119 52.32 49.4559 51.808 49.3279 51.152C48.9439 51.712 48.4399 52.2 47.8159 52.616C47.2079 53.032 46.4079 53.24 45.4159 53.24C44.9359 53.24 44.4799 53.184 44.0479 53.072C43.6319 52.96 43.2639 52.776 42.9439 52.52C42.6399 52.264 42.3919 51.936 42.1999 51.536C42.0239 51.12 41.9359 50.624 41.9359 50.048ZM49.3999 47.312C48.9839 47.312 48.5759 47.344 48.1759 47.408C47.7759 47.472 47.4159 47.576 47.0959 47.72C46.7919 47.848 46.5439 48.024 46.3519 48.248C46.1599 48.472 46.0639 48.744 46.0639 49.064C46.0639 49.432 46.1759 49.688 46.3999 49.832C46.6399 49.976 46.8959 50.048 47.1679 50.048C47.4239 50.048 47.6799 49.992 47.9359 49.88C48.1919 49.768 48.4159 49.6 48.6079 49.376C48.8159 49.136 48.9919 48.848 49.1359 48.512C49.2799 48.176 49.3679 47.776 49.3999 47.312ZM61.7713 39.56C63.1313 39.56 64.1313 39.832 64.7713 40.376C65.4113 40.904 65.7313 41.584 65.7313 42.416C65.7313 43.12 65.5073 43.656 65.0593 44.024C64.6273 44.392 63.9953 44.576 63.1633 44.576C62.9393 44.576 62.7873 44.552 62.7073 44.504C62.6273 44.456 62.5873 44.368 62.5873 44.24C62.5873 44.096 62.5713 43.936 62.5393 43.76C62.5233 43.568 62.4673 43.392 62.3713 43.232C62.2913 43.056 62.1553 42.912 61.9633 42.8C61.7873 42.688 61.5313 42.632 61.1953 42.632C60.7473 42.632 60.3873 42.744 60.1153 42.968C59.8433 43.176 59.7073 43.44 59.7073 43.76C59.7073 44.096 59.8433 44.368 60.1153 44.576C60.4033 44.768 60.7553 44.952 61.1713 45.128C61.6033 45.304 62.0673 45.488 62.5633 45.68C63.0593 45.856 63.5153 46.096 63.9313 46.4C64.3633 46.704 64.7153 47.088 64.9873 47.552C65.2753 48 65.4193 48.584 65.4193 49.304C65.4193 50.456 65.0113 51.4 64.1953 52.136C63.3793 52.872 62.1553 53.24 60.5233 53.24C60.0753 53.24 59.5553 53.2 58.9633 53.12C58.3873 53.056 57.8353 52.952 57.3073 52.808C56.7793 52.648 56.3313 52.44 55.9633 52.184C55.6113 51.928 55.4353 51.608 55.4353 51.224C55.4353 51.08 55.4593 50.904 55.5073 50.696C55.5713 50.488 55.6593 50.288 55.7713 50.096C55.8993 49.904 56.0433 49.744 56.2033 49.616C56.3793 49.472 56.5873 49.4 56.8273 49.4C57.0193 49.4 57.1953 49.448 57.3553 49.544C57.5153 49.64 57.6993 49.744 57.9073 49.856C58.1313 49.952 58.4033 50.048 58.7233 50.144C59.0433 50.24 59.4673 50.288 59.9953 50.288C60.3953 50.288 60.7473 50.24 61.0513 50.144C61.3713 50.048 61.5313 49.832 61.5313 49.496C61.5313 49.192 61.4033 48.952 61.1473 48.776C60.8913 48.584 60.5633 48.408 60.1633 48.248C59.7793 48.088 59.3553 47.92 58.8913 47.744C58.4433 47.552 58.0193 47.304 57.6193 47C57.2353 46.696 56.9153 46.312 56.6593 45.848C56.4033 45.368 56.2753 44.752 56.2753 44C56.2753 43.184 56.4353 42.496 56.7553 41.936C57.0913 41.36 57.5153 40.896 58.0273 40.544C58.5553 40.192 59.1473 39.944 59.8033 39.8C60.4593 39.64 61.1153 39.56 61.7713 39.56ZM72.6128 43.04C72.5648 43.648 72.5088 44.248 72.4448 44.84C72.3968 45.432 72.3488 45.992 72.3008 46.52C72.2528 47.048 72.2128 47.52 72.1808 47.936C72.1648 48.352 72.1568 48.672 72.1568 48.896C72.1568 49.312 72.2048 49.592 72.3008 49.736C72.3968 49.864 72.5568 49.928 72.7808 49.928C72.9568 49.928 73.1088 49.896 73.2368 49.832C73.3648 49.768 73.4848 49.696 73.5968 49.616C73.7088 49.536 73.8048 49.464 73.8848 49.4C73.9808 49.336 74.0848 49.304 74.1968 49.304C74.3088 49.304 74.4128 49.368 74.5088 49.496C74.6048 49.624 74.6528 49.92 74.6528 50.384C74.6528 51.264 74.4128 51.96 73.9328 52.472C73.4528 52.984 72.6288 53.24 71.4608 53.24C70.3088 53.24 69.4528 52.976 68.8928 52.448C68.3488 51.904 68.0768 51.08 68.0768 49.976C68.0768 49.736 68.0848 49.456 68.1008 49.136C68.1328 48.8 68.1728 48.368 68.2208 47.84C68.2688 47.312 68.3248 46.664 68.3888 45.896C68.4688 45.128 68.5488 44.176 68.6288 43.04H67.3568C67.2288 43.04 67.1488 43.016 67.1168 42.968C67.1008 42.904 67.0928 42.816 67.0928 42.704L67.1648 41.48C67.1808 41.272 67.2048 41.072 67.2368 40.88C67.2848 40.672 67.3648 40.488 67.4768 40.328C67.6048 40.168 67.7808 40.04 68.0048 39.944C68.2288 39.848 68.5248 39.8 68.8928 39.8C69.0048 39.512 69.1328 39.168 69.2768 38.768C69.4208 38.368 69.5648 37.984 69.7088 37.616C69.8528 37.232 69.9888 36.912 70.1168 36.656C70.2608 36.4 70.3888 36.272 70.5008 36.272H71.1968C71.8688 36.272 72.3328 36.48 72.5888 36.896C72.8448 37.312 72.9728 37.808 72.9728 38.384C72.9728 38.704 72.9488 39.176 72.9008 39.8H75.4208C75.6768 39.8 75.8048 39.912 75.8048 40.136L75.7088 41.432C75.6768 41.912 75.5408 42.304 75.3008 42.608C75.0768 42.896 74.6048 43.04 73.8848 43.04H72.6128ZM81.6227 42.008C81.6227 42.376 81.5987 42.816 81.5507 43.328C81.5027 43.824 81.4467 44.328 81.3827 44.84C81.3347 45.336 81.2867 45.808 81.2387 46.256C81.1907 46.688 81.1667 47.024 81.1667 47.264C81.1667 47.872 81.3107 48.328 81.5987 48.632C81.9027 48.92 82.2707 49.064 82.7027 49.064C83.4547 49.064 84.0547 48.672 84.5027 47.888C84.9507 47.104 85.2307 46.064 85.3427 44.768L85.7267 40.28C85.7427 40.104 85.7987 39.984 85.8947 39.92C86.0067 39.84 86.1267 39.8 86.2547 39.8H87.1187C87.4547 39.8 87.7667 39.832 88.0547 39.896C88.3587 39.944 88.6227 40.048 88.8467 40.208C89.0707 40.352 89.2467 40.552 89.3747 40.808C89.5027 41.064 89.5667 41.392 89.5667 41.792C89.5667 41.952 89.5507 42.256 89.5187 42.704C89.5027 43.136 89.4627 43.768 89.3987 44.6C89.3507 45.416 89.2787 46.456 89.1827 47.72C89.0867 48.968 88.9747 50.496 88.8467 52.304C88.7667 53.36 88.5267 54.232 88.1267 54.92C87.7427 55.624 87.2547 56.176 86.6627 56.576C86.0707 56.992 85.4067 57.28 84.6707 57.44C83.9347 57.6 83.1827 57.68 82.4147 57.68C81.5987 57.68 80.8467 57.608 80.1587 57.464C79.4867 57.32 78.9027 57.12 78.4067 56.864C77.9107 56.608 77.5187 56.312 77.2307 55.976C76.9587 55.64 76.8227 55.28 76.8227 54.896C76.8227 54.592 76.8867 54.328 77.0147 54.104C77.1587 53.88 77.3427 53.696 77.5667 53.552C77.7907 53.408 78.0467 53.296 78.3347 53.216C78.6387 53.152 78.9507 53.12 79.2707 53.12C79.4307 53.12 79.5427 53.2 79.6067 53.36C79.6867 53.52 79.7987 53.696 79.9427 53.888C80.1027 54.096 80.3507 54.28 80.6867 54.44C81.0227 54.6 81.5267 54.68 82.1987 54.68C82.7907 54.68 83.2707 54.536 83.6387 54.248C84.0067 53.96 84.2867 53.592 84.4787 53.144C84.6867 52.696 84.8227 52.208 84.8867 51.68C84.9507 51.152 84.9827 50.648 84.9827 50.168C84.7267 50.616 84.4387 50.984 84.1187 51.272C83.8147 51.544 83.4947 51.76 83.1587 51.92C82.8227 52.064 82.4867 52.16 82.1507 52.208C81.8147 52.256 81.4947 52.28 81.1907 52.28C80.5987 52.28 80.0547 52.2 79.5587 52.04C79.0787 51.88 78.6627 51.624 78.3107 51.272C77.9587 50.904 77.6867 50.432 77.4947 49.856C77.3027 49.28 77.2067 48.584 77.2067 47.768C77.2067 47.464 77.2227 47.064 77.2547 46.568C77.2867 46.056 77.3267 45.488 77.3747 44.864C77.4227 44.224 77.4707 43.536 77.5187 42.8C77.5827 42.064 77.6467 41.312 77.7107 40.544C77.7427 40.048 77.9667 39.8 78.3827 39.8H79.1507C79.6627 39.8 80.0787 39.848 80.3987 39.944C80.7187 40.04 80.9667 40.184 81.1427 40.376C81.3347 40.552 81.4627 40.784 81.5267 41.072C81.5907 41.344 81.6227 41.656 81.6227 42.008ZM98.5547 39.32L97.6427 52.64C97.6267 52.88 97.5387 53 97.3787 53H96.0587C95.1627 53 94.5227 52.824 94.1387 52.472C93.7547 52.12 93.5627 51.616 93.5627 50.96C93.5627 50.72 93.5707 50.36 93.5867 49.88C93.6187 49.4 93.6587 48.84 93.7067 48.2C93.7547 47.544 93.8027 46.84 93.8507 46.088C93.9147 45.32 93.9787 44.552 94.0427 43.784C94.1067 43 94.1627 42.224 94.2107 41.456C94.2747 40.688 94.3307 39.976 94.3787 39.32H90.5387C90.3627 39.32 90.2747 39.208 90.2747 38.984L90.3467 37.64C90.3627 37.432 90.3947 37.232 90.4427 37.04C90.5067 36.832 90.6027 36.648 90.7307 36.488C90.8587 36.328 91.0187 36.2 91.2107 36.104C91.4187 36.008 91.6667 35.96 91.9547 35.96H102.683C102.779 35.96 102.867 35.984 102.947 36.032C103.027 36.08 103.067 36.168 103.067 36.296L102.971 37.712C102.939 38.192 102.803 38.584 102.563 38.888C102.339 39.176 101.867 39.32 101.147 39.32H98.5547ZM110.408 45.536C110.312 45.536 110.2 45.536 110.072 45.536C109.96 45.52 109.848 45.504 109.736 45.488C109.624 45.456 109.528 45.424 109.448 45.392C109.368 45.344 109.328 45.288 109.328 45.224C109.328 45.016 109.336 44.824 109.352 44.648C109.368 44.472 109.376 44.288 109.376 44.096C109.376 43.744 109.328 43.456 109.232 43.232C109.136 43.008 108.944 42.896 108.656 42.896C108.208 42.896 107.832 43.192 107.528 43.784C107.24 44.36 107.056 45.232 106.976 46.4C106.944 46.912 106.896 47.496 106.832 48.152C106.784 48.792 106.736 49.416 106.688 50.024C106.64 50.616 106.6 51.144 106.568 51.608C106.536 52.072 106.52 52.376 106.52 52.52C106.52 52.68 106.464 52.8 106.352 52.88C106.24 52.96 106.12 53 105.992 53H105.128C104.632 53 104.224 52.952 103.904 52.856C103.6 52.744 103.352 52.592 103.16 52.4C102.984 52.208 102.856 51.976 102.776 51.704C102.712 51.416 102.68 51.088 102.68 50.72C102.68 50.48 102.688 50.144 102.704 49.712C102.736 49.264 102.784 48.656 102.848 47.888C102.912 47.104 102.984 46.12 103.064 44.936C103.16 43.736 103.272 42.256 103.4 40.496C103.432 40.032 103.6 39.8 103.904 39.8H104.84C105.288 39.8 105.664 39.848 105.968 39.944C106.272 40.04 106.52 40.176 106.712 40.352C106.904 40.512 107.04 40.704 107.12 40.928C107.216 41.152 107.28 41.384 107.312 41.624C107.504 41.256 107.728 40.944 107.984 40.688C108.256 40.416 108.536 40.2 108.824 40.04C109.112 39.864 109.408 39.744 109.712 39.68C110.016 39.6 110.296 39.56 110.552 39.56C110.856 39.56 111.16 39.616 111.464 39.728C111.784 39.84 112.072 40.008 112.328 40.232C112.584 40.456 112.784 40.744 112.928 41.096C113.088 41.448 113.168 41.864 113.168 42.344C113.168 42.776 113.104 43.184 112.976 43.568C112.848 43.952 112.664 44.296 112.424 44.6C112.184 44.888 111.888 45.12 111.536 45.296C111.2 45.456 110.824 45.536 110.408 45.536ZM119.516 53.24C118.412 53.24 117.492 53.088 116.756 52.784C116.036 52.464 115.46 52.032 115.028 51.488C114.596 50.944 114.292 50.312 114.116 49.592C113.94 48.856 113.852 48.072 113.852 47.24C113.852 46.28 113.964 45.344 114.188 44.432C114.428 43.504 114.828 42.68 115.388 41.96C115.948 41.24 116.684 40.664 117.596 40.232C118.524 39.784 119.676 39.56 121.052 39.56C123.068 39.56 124.508 40.056 125.372 41.048C126.252 42.024 126.692 43.4 126.692 45.176C126.692 45.672 126.652 46.224 126.572 46.832C126.508 47.424 126.372 48.016 126.164 48.608C125.972 49.2 125.7 49.776 125.348 50.336C125.012 50.896 124.58 51.392 124.052 51.824C123.524 52.256 122.884 52.6 122.132 52.856C121.396 53.112 120.524 53.24 119.516 53.24ZM120.644 42.752C120.036 42.752 119.548 42.912 119.18 43.232C118.828 43.536 118.556 43.912 118.364 44.36C118.188 44.792 118.068 45.256 118.004 45.752C117.956 46.232 117.932 46.64 117.932 46.976C117.932 48.032 118.1 48.808 118.436 49.304C118.772 49.8 119.252 50.048 119.876 50.048C120.436 50.048 120.892 49.872 121.244 49.52C121.612 49.168 121.892 48.744 122.084 48.248C122.292 47.752 122.428 47.232 122.492 46.688C122.572 46.144 122.612 45.688 122.612 45.32C122.612 44.52 122.46 43.896 122.156 43.448C121.868 42.984 121.364 42.752 120.644 42.752ZM133.746 49.952C133.938 49.28 134.114 48.616 134.274 47.96C134.45 47.304 134.618 46.608 134.778 45.872C134.954 45.12 135.138 44.304 135.33 43.424C135.538 42.528 135.778 41.512 136.05 40.376C136.098 40.152 136.17 40.008 136.266 39.944C136.362 39.864 136.57 39.824 136.89 39.824C137.13 39.824 137.45 39.832 137.85 39.848C138.25 39.864 138.642 39.92 139.026 40.016C139.41 40.112 139.738 40.256 140.01 40.448C140.298 40.64 140.442 40.904 140.442 41.24C140.442 41.512 140.346 41.952 140.154 42.56C139.962 43.168 139.714 43.864 139.41 44.648C139.106 45.416 138.762 46.224 138.378 47.072C138.01 47.92 137.65 48.72 137.298 49.472C136.946 50.224 136.618 50.888 136.314 51.464C136.01 52.024 135.786 52.416 135.642 52.64C135.514 52.816 135.402 52.92 135.306 52.952C135.21 52.984 135.05 53 134.826 53H132.69C132.354 53 132.074 52.944 131.85 52.832C131.642 52.704 131.466 52.544 131.322 52.352C131.178 52.16 131.058 51.944 130.962 51.704C130.866 51.448 130.778 51.184 130.698 50.912C130.234 49.312 129.826 47.944 129.474 46.808C129.138 45.656 128.85 44.696 128.61 43.928C128.37 43.16 128.178 42.552 128.034 42.104C127.89 41.64 127.778 41.288 127.698 41.048C127.618 40.792 127.562 40.624 127.53 40.544C127.498 40.448 127.482 40.384 127.482 40.352C127.498 40.24 127.578 40.12 127.722 39.992C127.866 39.864 128.05 39.8 128.274 39.8C129.01 39.8 129.634 39.832 130.146 39.896C130.674 39.944 131.106 40.04 131.442 40.184C131.794 40.328 132.058 40.528 132.234 40.784C132.426 41.04 132.562 41.376 132.642 41.792C132.658 41.904 132.69 42.128 132.738 42.464C132.786 42.8 132.834 43.208 132.882 43.688C132.946 44.152 133.018 44.672 133.098 45.248C133.178 45.808 133.25 46.376 133.314 46.952C133.394 47.512 133.466 48.056 133.53 48.584C133.61 49.112 133.682 49.568 133.746 49.952ZM147.036 53.24C146.332 53.24 145.628 53.152 144.924 52.976C144.236 52.8 143.612 52.496 143.052 52.064C142.508 51.632 142.06 51.056 141.708 50.336C141.356 49.616 141.18 48.712 141.18 47.624C141.18 47.224 141.212 46.744 141.276 46.184C141.34 45.624 141.46 45.048 141.636 44.456C141.828 43.864 142.084 43.28 142.404 42.704C142.74 42.112 143.172 41.584 143.7 41.12C144.228 40.656 144.868 40.28 145.62 39.992C146.372 39.704 147.268 39.56 148.308 39.56C149.14 39.56 149.844 39.656 150.42 39.848C150.996 40.04 151.46 40.304 151.812 40.64C152.164 40.96 152.42 41.336 152.58 41.768C152.74 42.2 152.82 42.664 152.82 43.16C152.82 43.896 152.668 44.52 152.364 45.032C152.076 45.544 151.692 45.976 151.212 46.328C150.748 46.664 150.228 46.928 149.652 47.12C149.076 47.312 148.508 47.464 147.948 47.576C147.388 47.672 146.868 47.736 146.388 47.768C145.924 47.784 145.564 47.792 145.308 47.792C145.308 48.096 145.348 48.4 145.428 48.704C145.524 48.992 145.66 49.248 145.836 49.472C146.012 49.696 146.244 49.88 146.532 50.024C146.82 50.168 147.172 50.24 147.588 50.24C148.004 50.24 148.324 50.176 148.548 50.048C148.788 49.904 148.98 49.752 149.124 49.592C149.268 49.416 149.388 49.264 149.484 49.136C149.596 48.992 149.74 48.92 149.916 48.92C149.996 48.92 150.132 48.944 150.324 48.992C150.532 49.024 150.74 49.104 150.948 49.232C151.156 49.36 151.34 49.536 151.5 49.76C151.66 49.984 151.74 50.272 151.74 50.624C151.74 51.088 151.596 51.488 151.308 51.824C151.02 52.16 150.644 52.432 150.18 52.64C149.732 52.848 149.228 53 148.668 53.096C148.108 53.192 147.564 53.24 147.036 53.24ZM147.492 42.752C147.14 42.752 146.836 42.856 146.58 43.064C146.34 43.256 146.132 43.504 145.956 43.808C145.796 44.112 145.668 44.448 145.572 44.816C145.492 45.184 145.428 45.536 145.38 45.872C146.372 45.856 147.172 45.688 147.78 45.368C148.404 45.048 148.716 44.592 148.716 44C148.716 43.68 148.612 43.392 148.404 43.136C148.212 42.88 147.908 42.752 147.492 42.752Z" fill="white"/>
</svg>
