<svg width="34" height="27" viewBox="0 0 34 27" fill="none" xmlns="http://www.w3.org/2000/svg">
<path d="M27.0258 7.46934C25.0932 7.31322 23.3096 7.60919 22.0225 8.20763C22.6297 8.86786 23.0193 9.90212 23.0193 11.0665C23.0193 12.0162 22.7596 12.878 22.3356 13.522C23.4165 14.0717 24.7991 14.4587 26.3307 14.5823C30.024 14.8815 33.175 13.5285 33.366 11.5641C33.5569 9.59964 30.7192 7.76856 27.0258 7.46934Z" fill="#000000" fill-opacity="1"/>
<path d="M0 12.8746L0.0381937 13.8829C0.12222 16.0847 1.03887 18.228 2.69647 20.0754C4.28533 21.8479 6.50056 23.3018 9.10919 24.2807C9.68973 24.4986 10.3658 24.2742 10.6178 23.7798C10.8737 23.2855 10.6102 22.7098 10.0297 22.4952C7.77623 21.6495 5.87037 20.4039 4.51449 18.8915C3.40687 17.6556 2.70029 16.2669 2.43676 14.8261H31.5632C31.2959 16.2831 30.5778 17.6849 29.4473 18.9338C28.0685 20.4559 26.1321 21.7048 23.8405 22.5407C23.2599 22.7521 22.9926 23.3278 23.2408 23.8221C23.428 24.1929 23.8481 24.4141 24.295 24.4141C24.4478 24.4141 24.6005 24.388 24.7457 24.336C30.2647 22.313 33.7976 18.3094 33.9618 13.8829L34 12.8746H0Z" fill="#000000" fill-opacity="1"/>
<path d="M20.0403 22.8306H13.9675C12.6231 22.8306 11.5193 23.7673 11.5193 24.9153C11.5193 26.0634 12.6193 27.0001 13.9675 27.0001H20.0403C21.3847 27.0001 22.4885 26.0634 22.4885 24.9153C22.4885 23.7673 21.3847 22.8306 20.0403 22.8306ZM20.0403 25.0454H13.9675C13.8873 25.0454 13.8109 24.9804 13.8109 24.9121C13.8109 24.8438 13.8873 24.7787 13.9675 24.7787H20.0403C20.1205 24.7787 20.1969 24.8438 20.1969 24.9121C20.1969 24.9804 20.1205 25.0454 20.0403 25.0454Z" fill="#000000" fill-opacity="1"/>
<path d="M16.4576 8.95575C16.091 8.51668 15.3729 8.41586 14.8573 8.73134C14.3417 9.04357 14.2233 9.65501 14.5938 10.0941C15.0063 10.5852 15.2278 11.1674 15.2278 11.7756C15.2278 12.3155 15.7396 12.7513 16.3736 12.7513C17.0076 12.7513 17.5194 12.3155 17.5194 11.7756C17.5194 10.7543 17.1527 9.7786 16.4576 8.95575ZM13.9483 7.27427C13.2723 7.04335 12.5619 6.92627 11.8286 6.92627C8.68903 6.92627 6.1377 9.09886 6.1377 11.7723C6.1377 12.3122 6.64949 12.748 7.28351 12.748C7.91752 12.748 8.42932 12.3122 8.42932 11.7723C8.42932 10.1754 9.95324 8.8777 11.8286 8.8777C12.2678 8.8777 12.6917 8.94599 13.0928 9.08585C13.6809 9.28749 14.3455 9.04357 14.5823 8.5427C14.8191 8.04183 14.5365 7.47267 13.9483 7.27427Z" fill="#000000" fill-opacity="1"/>
<path d="M18.4172 5.74247C16.6336 4.25939 14.3038 3.43979 11.8556 3.43979C9.40734 3.43979 7.07753 4.25614 5.29388 5.74247C3.53316 7.20929 2.46755 9.18999 2.29186 11.317C2.24603 11.8537 2.72345 12.322 3.35365 12.3578C3.98384 12.3936 4.53383 11.9903 4.57584 11.4536C4.70952 9.80144 5.5345 8.26957 6.8942 7.13774C8.24625 6.01242 10.007 5.39122 11.8556 5.39122C13.7003 5.39122 15.4649 6.01242 16.8169 7.13774C18.1766 8.26957 18.9978 9.80144 19.1353 11.4536C19.1773 11.9675 19.6814 12.3611 20.2773 12.3611C20.304 12.3611 20.3307 12.3611 20.3575 12.3578C20.9877 12.3188 21.4651 11.8537 21.4193 11.317C21.2436 9.18999 20.178 7.20929 18.4172 5.74247ZM31.6208 9.35911C31.1816 8.72815 30.5628 8.16875 29.7837 7.6939L31.8423 5.79776C32.2701 5.40097 32.2433 4.78302 31.7774 4.41876C31.3114 4.05449 30.5857 4.07726 30.158 4.47405L27.6754 6.76372C27.4844 6.70518 27.2896 6.64989 27.091 6.6011L30.2382 1.42332C30.5284 0.945218 30.3107 0.356538 29.7455 0.109358C29.184 -0.137823 28.4927 0.0475628 28.2024 0.528914L24.7192 6.26285C24.5091 6.2531 24.2952 6.24659 24.0814 6.24659C23.2449 6.24659 22.4199 6.32465 21.6255 6.48076C21.0106 6.6011 20.6248 7.12473 20.7661 7.65162C20.9075 8.17525 21.5224 8.50374 22.1411 8.3834C22.7637 8.25981 23.4168 8.19802 24.0775 8.19802C25.7428 8.19802 27.2934 8.5818 28.4431 9.28106C29.4781 9.90877 30.0472 10.7121 30.0472 11.5415C30.0472 12.0814 30.559 12.5172 31.193 12.5172C31.827 12.5172 32.3388 12.0814 32.3388 11.5415C32.3388 10.7772 32.0982 10.0421 31.6208 9.35911Z" fill="#000000" fill-opacity="1"/>
</svg>
