<svg width="123" height="23" viewBox="0 0 123 23" fill="none" xmlns="http://www.w3.org/2000/svg">
<path d="M9 4.32L8.088 17.64C8.072 17.88 7.984 18 7.824 18H6.504C5.608 18 4.968 17.824 4.584 17.472C4.2 17.12 4.008 16.616 4.008 15.96C4.008 15.72 4.016 15.36 4.032 14.88C4.064 14.4 4.104 13.84 4.152 13.2C4.2 12.544 4.248 11.84 4.296 11.088C4.36 10.32 4.424 9.552 4.488 8.784C4.552 8 4.608 7.224 4.656 6.456C4.72 5.688 4.776 4.976 4.824 4.32H0.984C0.808 4.32 0.72 4.208 0.72 3.984L0.792 2.64C0.808 2.432 0.84 2.232 0.888 2.04C0.952 1.832 1.048 1.648 1.176 1.488C1.304 1.328 1.464 1.2 1.656 1.104C1.864 1.008 2.112 0.959999 2.4 0.959999H13.128C13.224 0.959999 13.312 0.983999 13.392 1.032C13.472 1.08 13.512 1.168 13.512 1.296L13.416 2.712C13.384 3.192 13.248 3.584 13.008 3.888C12.784 4.176 12.312 4.32 11.592 4.32H9ZM11.9359 15.048C11.9359 13.608 12.5839 12.48 13.8799 11.664C15.1759 10.848 17.0879 10.408 19.6159 10.344C19.6319 10.168 19.6399 10.024 19.6399 9.912C19.6559 9.784 19.6639 9.632 19.6639 9.456C19.6639 8.944 19.5679 8.536 19.3759 8.232C19.1839 7.928 18.7839 7.776 18.1759 7.776C17.8399 7.776 17.5679 7.824 17.3599 7.92C17.1519 8.016 16.9839 8.152 16.8559 8.328C16.7279 8.488 16.6239 8.688 16.5439 8.928C16.4639 9.168 16.3919 9.432 16.3279 9.72C16.2959 9.864 16.2239 9.96 16.1119 10.008C15.9999 10.04 15.8239 10.056 15.5839 10.056C13.9519 10.056 13.1359 9.44 13.1359 8.208C13.1359 7.712 13.2479 7.24 13.4719 6.792C13.7119 6.344 14.0559 5.96 14.5039 5.64C14.9679 5.304 15.5439 5.04 16.2319 4.848C16.9199 4.656 17.7199 4.56 18.6319 4.56C20.4079 4.56 21.6959 4.928 22.4959 5.664C23.2959 6.4 23.6959 7.44 23.6959 8.784C23.6959 8.96 23.6719 9.28 23.6239 9.744C23.5919 10.192 23.5439 10.672 23.4799 11.184C23.4319 11.68 23.3839 12.152 23.3359 12.6C23.3039 13.048 23.2879 13.36 23.2879 13.536C23.2879 13.936 23.3599 14.224 23.5039 14.4C23.6479 14.56 23.8079 14.672 23.9839 14.736C24.1759 14.8 24.3439 14.848 24.4879 14.88C24.6319 14.912 24.7039 14.992 24.7039 15.12C24.7039 15.472 24.6559 15.832 24.5599 16.2C24.4639 16.568 24.3039 16.904 24.0799 17.208C23.8719 17.512 23.5759 17.76 23.1919 17.952C22.8239 18.144 22.3679 18.24 21.8239 18.24C21.0559 18.24 20.4799 18.056 20.0959 17.688C19.7119 17.32 19.4559 16.808 19.3279 16.152C18.9439 16.712 18.4399 17.2 17.8159 17.616C17.2079 18.032 16.4079 18.24 15.4159 18.24C14.9359 18.24 14.4799 18.184 14.0479 18.072C13.6319 17.96 13.2639 17.776 12.9439 17.52C12.6399 17.264 12.3919 16.936 12.1999 16.536C12.0239 16.12 11.9359 15.624 11.9359 15.048ZM19.3999 12.312C18.9839 12.312 18.5759 12.344 18.1759 12.408C17.7759 12.472 17.4159 12.576 17.0959 12.72C16.7919 12.848 16.5439 13.024 16.3519 13.248C16.1599 13.472 16.0639 13.744 16.0639 14.064C16.0639 14.432 16.1759 14.688 16.3999 14.832C16.6399 14.976 16.8959 15.048 17.1679 15.048C17.4239 15.048 17.6799 14.992 17.9359 14.88C18.1919 14.768 18.4159 14.6 18.6079 14.376C18.8159 14.136 18.9919 13.848 19.1359 13.512C19.2799 13.176 19.3679 12.776 19.3999 12.312ZM31.7713 4.56C33.1313 4.56 34.1313 4.832 34.7713 5.376C35.4113 5.904 35.7313 6.584 35.7313 7.416C35.7313 8.12 35.5073 8.656 35.0593 9.024C34.6273 9.392 33.9953 9.576 33.1633 9.576C32.9393 9.576 32.7873 9.552 32.7073 9.504C32.6273 9.456 32.5873 9.368 32.5873 9.24C32.5873 9.096 32.5713 8.936 32.5393 8.76C32.5233 8.568 32.4673 8.392 32.3713 8.232C32.2913 8.056 32.1553 7.912 31.9633 7.8C31.7873 7.688 31.5313 7.632 31.1953 7.632C30.7473 7.632 30.3873 7.744 30.1153 7.968C29.8433 8.176 29.7073 8.44 29.7073 8.76C29.7073 9.096 29.8433 9.368 30.1153 9.576C30.4033 9.768 30.7553 9.952 31.1713 10.128C31.6033 10.304 32.0673 10.488 32.5633 10.68C33.0593 10.856 33.5153 11.096 33.9313 11.4C34.3633 11.704 34.7153 12.088 34.9873 12.552C35.2753 13 35.4193 13.584 35.4193 14.304C35.4193 15.456 35.0113 16.4 34.1953 17.136C33.3793 17.872 32.1553 18.24 30.5233 18.24C30.0753 18.24 29.5553 18.2 28.9633 18.12C28.3873 18.056 27.8353 17.952 27.3073 17.808C26.7793 17.648 26.3313 17.44 25.9633 17.184C25.6113 16.928 25.4353 16.608 25.4353 16.224C25.4353 16.08 25.4593 15.904 25.5073 15.696C25.5713 15.488 25.6593 15.288 25.7713 15.096C25.8993 14.904 26.0433 14.744 26.2033 14.616C26.3793 14.472 26.5873 14.4 26.8273 14.4C27.0193 14.4 27.1953 14.448 27.3553 14.544C27.5153 14.64 27.6993 14.744 27.9073 14.856C28.1313 14.952 28.4033 15.048 28.7233 15.144C29.0433 15.24 29.4673 15.288 29.9953 15.288C30.3953 15.288 30.7473 15.24 31.0513 15.144C31.3713 15.048 31.5313 14.832 31.5313 14.496C31.5313 14.192 31.4033 13.952 31.1473 13.776C30.8913 13.584 30.5633 13.408 30.1633 13.248C29.7793 13.088 29.3553 12.92 28.8913 12.744C28.4433 12.552 28.0193 12.304 27.6193 12C27.2353 11.696 26.9153 11.312 26.6593 10.848C26.4033 10.368 26.2753 9.752 26.2753 9C26.2753 8.184 26.4353 7.496 26.7553 6.936C27.0913 6.36 27.5153 5.896 28.0273 5.544C28.5553 5.192 29.1473 4.944 29.8033 4.8C30.4593 4.64 31.1153 4.56 31.7713 4.56ZM42.6128 8.04C42.5648 8.648 42.5088 9.248 42.4448 9.84C42.3968 10.432 42.3488 10.992 42.3008 11.52C42.2528 12.048 42.2128 12.52 42.1808 12.936C42.1648 13.352 42.1568 13.672 42.1568 13.896C42.1568 14.312 42.2048 14.592 42.3008 14.736C42.3968 14.864 42.5568 14.928 42.7808 14.928C42.9568 14.928 43.1088 14.896 43.2368 14.832C43.3648 14.768 43.4848 14.696 43.5968 14.616C43.7088 14.536 43.8048 14.464 43.8848 14.4C43.9808 14.336 44.0848 14.304 44.1968 14.304C44.3088 14.304 44.4128 14.368 44.5088 14.496C44.6048 14.624 44.6528 14.92 44.6528 15.384C44.6528 16.264 44.4128 16.96 43.9328 17.472C43.4528 17.984 42.6288 18.24 41.4608 18.24C40.3088 18.24 39.4528 17.976 38.8928 17.448C38.3488 16.904 38.0768 16.08 38.0768 14.976C38.0768 14.736 38.0848 14.456 38.1008 14.136C38.1328 13.8 38.1728 13.368 38.2208 12.84C38.2688 12.312 38.3248 11.664 38.3888 10.896C38.4688 10.128 38.5488 9.176 38.6288 8.04H37.3568C37.2288 8.04 37.1488 8.016 37.1168 7.968C37.1008 7.904 37.0928 7.816 37.0928 7.704L37.1648 6.48C37.1808 6.272 37.2048 6.072 37.2368 5.88C37.2848 5.672 37.3648 5.488 37.4768 5.328C37.6048 5.168 37.7808 5.04 38.0048 4.944C38.2288 4.848 38.5248 4.8 38.8928 4.8C39.0048 4.512 39.1328 4.168 39.2768 3.768C39.4208 3.368 39.5648 2.984 39.7088 2.616C39.8528 2.232 39.9888 1.912 40.1168 1.656C40.2608 1.4 40.3888 1.272 40.5008 1.272H41.1968C41.8688 1.272 42.3328 1.48 42.5888 1.896C42.8448 2.312 42.9728 2.808 42.9728 3.384C42.9728 3.704 42.9488 4.176 42.9008 4.8H45.4208C45.6768 4.8 45.8048 4.912 45.8048 5.136L45.7088 6.432C45.6768 6.912 45.5408 7.304 45.3008 7.608C45.0768 7.896 44.6048 8.04 43.8848 8.04H42.6128ZM51.6227 7.008C51.6227 7.376 51.5987 7.816 51.5507 8.328C51.5027 8.824 51.4467 9.328 51.3827 9.84C51.3347 10.336 51.2867 10.808 51.2387 11.256C51.1907 11.688 51.1667 12.024 51.1667 12.264C51.1667 12.872 51.3107 13.328 51.5987 13.632C51.9027 13.92 52.2707 14.064 52.7027 14.064C53.4547 14.064 54.0547 13.672 54.5027 12.888C54.9507 12.104 55.2307 11.064 55.3427 9.768L55.7267 5.28C55.7427 5.104 55.7987 4.984 55.8947 4.92C56.0067 4.84 56.1267 4.8 56.2547 4.8H57.1187C57.4547 4.8 57.7667 4.832 58.0547 4.896C58.3587 4.944 58.6227 5.048 58.8467 5.208C59.0707 5.352 59.2467 5.552 59.3747 5.808C59.5027 6.064 59.5667 6.392 59.5667 6.792C59.5667 6.952 59.5507 7.256 59.5187 7.704C59.5027 8.136 59.4627 8.768 59.3987 9.6C59.3507 10.416 59.2787 11.456 59.1827 12.72C59.0867 13.968 58.9747 15.496 58.8467 17.304C58.7667 18.36 58.5267 19.232 58.1267 19.92C57.7427 20.624 57.2547 21.176 56.6627 21.576C56.0707 21.992 55.4067 22.28 54.6707 22.44C53.9347 22.6 53.1827 22.68 52.4147 22.68C51.5987 22.68 50.8467 22.608 50.1587 22.464C49.4867 22.32 48.9027 22.12 48.4067 21.864C47.9107 21.608 47.5187 21.312 47.2307 20.976C46.9587 20.64 46.8227 20.28 46.8227 19.896C46.8227 19.592 46.8867 19.328 47.0147 19.104C47.1587 18.88 47.3427 18.696 47.5667 18.552C47.7907 18.408 48.0467 18.296 48.3347 18.216C48.6387 18.152 48.9507 18.12 49.2707 18.12C49.4307 18.12 49.5427 18.2 49.6067 18.36C49.6867 18.52 49.7987 18.696 49.9427 18.888C50.1027 19.096 50.3507 19.28 50.6867 19.44C51.0227 19.6 51.5267 19.68 52.1987 19.68C52.7907 19.68 53.2707 19.536 53.6387 19.248C54.0067 18.96 54.2867 18.592 54.4787 18.144C54.6867 17.696 54.8227 17.208 54.8867 16.68C54.9507 16.152 54.9827 15.648 54.9827 15.168C54.7267 15.616 54.4387 15.984 54.1187 16.272C53.8147 16.544 53.4947 16.76 53.1587 16.92C52.8227 17.064 52.4867 17.16 52.1507 17.208C51.8147 17.256 51.4947 17.28 51.1907 17.28C50.5987 17.28 50.0547 17.2 49.5587 17.04C49.0787 16.88 48.6627 16.624 48.3107 16.272C47.9587 15.904 47.6867 15.432 47.4947 14.856C47.3027 14.28 47.2067 13.584 47.2067 12.768C47.2067 12.464 47.2227 12.064 47.2547 11.568C47.2867 11.056 47.3267 10.488 47.3747 9.864C47.4227 9.224 47.4707 8.536 47.5187 7.8C47.5827 7.064 47.6467 6.312 47.7107 5.544C47.7427 5.048 47.9667 4.8 48.3827 4.8H49.1507C49.6627 4.8 50.0787 4.848 50.3987 4.944C50.7187 5.04 50.9667 5.184 51.1427 5.376C51.3347 5.552 51.4627 5.784 51.5267 6.072C51.5907 6.344 51.6227 6.656 51.6227 7.008ZM68.5547 4.32L67.6427 17.64C67.6267 17.88 67.5387 18 67.3787 18H66.0587C65.1627 18 64.5227 17.824 64.1387 17.472C63.7547 17.12 63.5627 16.616 63.5627 15.96C63.5627 15.72 63.5707 15.36 63.5867 14.88C63.6187 14.4 63.6587 13.84 63.7067 13.2C63.7547 12.544 63.8027 11.84 63.8507 11.088C63.9147 10.32 63.9787 9.552 64.0427 8.784C64.1067 8 64.1627 7.224 64.2107 6.456C64.2747 5.688 64.3307 4.976 64.3787 4.32H60.5387C60.3627 4.32 60.2747 4.208 60.2747 3.984L60.3467 2.64C60.3627 2.432 60.3947 2.232 60.4427 2.04C60.5067 1.832 60.6027 1.648 60.7307 1.488C60.8587 1.328 61.0187 1.2 61.2107 1.104C61.4187 1.008 61.6667 0.959999 61.9547 0.959999H72.6827C72.7787 0.959999 72.8667 0.983999 72.9467 1.032C73.0267 1.08 73.0667 1.168 73.0667 1.296L72.9707 2.712C72.9387 3.192 72.8027 3.584 72.5627 3.888C72.3387 4.176 71.8667 4.32 71.1467 4.32H68.5547ZM80.4079 10.536C80.3119 10.536 80.1999 10.536 80.0719 10.536C79.9599 10.52 79.8479 10.504 79.7359 10.488C79.6239 10.456 79.5279 10.424 79.4479 10.392C79.3679 10.344 79.3279 10.288 79.3279 10.224C79.3279 10.016 79.3359 9.824 79.3519 9.648C79.3679 9.472 79.3759 9.288 79.3759 9.096C79.3759 8.744 79.3279 8.456 79.2319 8.232C79.1359 8.008 78.9439 7.896 78.6559 7.896C78.2079 7.896 77.8319 8.192 77.5279 8.784C77.2399 9.36 77.0559 10.232 76.9759 11.4C76.9439 11.912 76.8959 12.496 76.8319 13.152C76.7839 13.792 76.7359 14.416 76.6879 15.024C76.6399 15.616 76.5999 16.144 76.5679 16.608C76.5359 17.072 76.5199 17.376 76.5199 17.52C76.5199 17.68 76.4639 17.8 76.3519 17.88C76.2399 17.96 76.1199 18 75.9919 18H75.1279C74.6319 18 74.2239 17.952 73.9039 17.856C73.5999 17.744 73.3519 17.592 73.1599 17.4C72.9839 17.208 72.8559 16.976 72.7759 16.704C72.7119 16.416 72.6799 16.088 72.6799 15.72C72.6799 15.48 72.6879 15.144 72.7039 14.712C72.7359 14.264 72.7839 13.656 72.8479 12.888C72.9119 12.104 72.9839 11.12 73.0639 9.936C73.1599 8.736 73.2719 7.256 73.3999 5.496C73.4319 5.032 73.5999 4.8 73.9039 4.8H74.8399C75.2879 4.8 75.6639 4.848 75.9679 4.944C76.2719 5.04 76.5199 5.176 76.7119 5.352C76.9039 5.512 77.0399 5.704 77.1199 5.928C77.2159 6.152 77.2799 6.384 77.3119 6.624C77.5039 6.256 77.7279 5.944 77.9839 5.688C78.2559 5.416 78.5359 5.2 78.8239 5.04C79.1119 4.864 79.4079 4.744 79.7119 4.68C80.0159 4.6 80.2959 4.56 80.5519 4.56C80.8559 4.56 81.1599 4.616 81.4639 4.728C81.7839 4.84 82.0719 5.008 82.3279 5.232C82.5839 5.456 82.7839 5.744 82.9279 6.096C83.0879 6.448 83.1679 6.864 83.1679 7.344C83.1679 7.776 83.1039 8.184 82.9759 8.568C82.8479 8.952 82.6639 9.296 82.4239 9.6C82.1839 9.888 81.8879 10.12 81.5359 10.296C81.1999 10.456 80.8239 10.536 80.4079 10.536ZM89.5163 18.24C88.4123 18.24 87.4923 18.088 86.7563 17.784C86.0363 17.464 85.4603 17.032 85.0283 16.488C84.5963 15.944 84.2923 15.312 84.1163 14.592C83.9403 13.856 83.8523 13.072 83.8523 12.24C83.8523 11.28 83.9643 10.344 84.1883 9.432C84.4283 8.504 84.8283 7.68 85.3883 6.96C85.9483 6.24 86.6843 5.664 87.5963 5.232C88.5243 4.784 89.6763 4.56 91.0523 4.56C93.0683 4.56 94.5083 5.056 95.3723 6.048C96.2523 7.024 96.6923 8.4 96.6923 10.176C96.6923 10.672 96.6523 11.224 96.5723 11.832C96.5083 12.424 96.3723 13.016 96.1643 13.608C95.9723 14.2 95.7003 14.776 95.3483 15.336C95.0123 15.896 94.5803 16.392 94.0523 16.824C93.5243 17.256 92.8843 17.6 92.1323 17.856C91.3963 18.112 90.5243 18.24 89.5163 18.24ZM90.6443 7.752C90.0363 7.752 89.5483 7.912 89.1803 8.232C88.8283 8.536 88.5563 8.912 88.3643 9.36C88.1883 9.792 88.0683 10.256 88.0043 10.752C87.9563 11.232 87.9323 11.64 87.9323 11.976C87.9323 13.032 88.1003 13.808 88.4363 14.304C88.7723 14.8 89.2523 15.048 89.8763 15.048C90.4363 15.048 90.8923 14.872 91.2443 14.52C91.6123 14.168 91.8923 13.744 92.0843 13.248C92.2923 12.752 92.4283 12.232 92.4923 11.688C92.5723 11.144 92.6123 10.688 92.6123 10.32C92.6123 9.52 92.4603 8.896 92.1563 8.448C91.8683 7.984 91.3643 7.752 90.6443 7.752ZM103.746 14.952C103.938 14.28 104.114 13.616 104.274 12.96C104.45 12.304 104.618 11.608 104.778 10.872C104.954 10.12 105.138 9.304 105.33 8.424C105.538 7.528 105.778 6.512 106.05 5.376C106.098 5.152 106.17 5.008 106.266 4.944C106.362 4.864 106.57 4.824 106.89 4.824C107.13 4.824 107.45 4.832 107.85 4.848C108.25 4.864 108.642 4.92 109.026 5.016C109.41 5.112 109.738 5.256 110.01 5.448C110.298 5.64 110.442 5.904 110.442 6.24C110.442 6.512 110.346 6.952 110.154 7.56C109.962 8.168 109.714 8.864 109.41 9.648C109.106 10.416 108.762 11.224 108.378 12.072C108.01 12.92 107.65 13.72 107.298 14.472C106.946 15.224 106.618 15.888 106.314 16.464C106.01 17.024 105.786 17.416 105.642 17.64C105.514 17.816 105.402 17.92 105.306 17.952C105.21 17.984 105.05 18 104.826 18H102.69C102.354 18 102.074 17.944 101.85 17.832C101.642 17.704 101.466 17.544 101.322 17.352C101.178 17.16 101.058 16.944 100.962 16.704C100.866 16.448 100.778 16.184 100.698 15.912C100.234 14.312 99.8256 12.944 99.4736 11.808C99.1376 10.656 98.8496 9.696 98.6096 8.928C98.3696 8.16 98.1776 7.552 98.0336 7.104C97.8896 6.64 97.7776 6.288 97.6976 6.048C97.6176 5.792 97.5616 5.624 97.5296 5.544C97.4976 5.448 97.4816 5.384 97.4816 5.352C97.4976 5.24 97.5776 5.12 97.7216 4.992C97.8656 4.864 98.0496 4.8 98.2736 4.8C99.0096 4.8 99.6336 4.832 100.146 4.896C100.674 4.944 101.106 5.04 101.442 5.184C101.794 5.328 102.058 5.528 102.234 5.784C102.426 6.04 102.562 6.376 102.642 6.792C102.658 6.904 102.69 7.128 102.738 7.464C102.786 7.8 102.834 8.208 102.882 8.688C102.946 9.152 103.018 9.672 103.098 10.248C103.178 10.808 103.25 11.376 103.314 11.952C103.394 12.512 103.466 13.056 103.53 13.584C103.61 14.112 103.682 14.568 103.746 14.952ZM117.036 18.24C116.332 18.24 115.628 18.152 114.924 17.976C114.236 17.8 113.612 17.496 113.052 17.064C112.508 16.632 112.06 16.056 111.708 15.336C111.356 14.616 111.18 13.712 111.18 12.624C111.18 12.224 111.212 11.744 111.276 11.184C111.34 10.624 111.46 10.048 111.636 9.456C111.828 8.864 112.084 8.28 112.404 7.704C112.74 7.112 113.172 6.584 113.7 6.12C114.228 5.656 114.868 5.28 115.62 4.992C116.372 4.704 117.268 4.56 118.308 4.56C119.14 4.56 119.844 4.656 120.42 4.848C120.996 5.04 121.46 5.304 121.812 5.64C122.164 5.96 122.42 6.336 122.58 6.768C122.74 7.2 122.82 7.664 122.82 8.16C122.82 8.896 122.668 9.52 122.364 10.032C122.076 10.544 121.692 10.976 121.212 11.328C120.748 11.664 120.228 11.928 119.652 12.12C119.076 12.312 118.508 12.464 117.948 12.576C117.388 12.672 116.868 12.736 116.388 12.768C115.924 12.784 115.564 12.792 115.308 12.792C115.308 13.096 115.348 13.4 115.428 13.704C115.524 13.992 115.66 14.248 115.836 14.472C116.012 14.696 116.244 14.88 116.532 15.024C116.82 15.168 117.172 15.24 117.588 15.24C118.004 15.24 118.324 15.176 118.548 15.048C118.788 14.904 118.98 14.752 119.124 14.592C119.268 14.416 119.388 14.264 119.484 14.136C119.596 13.992 119.74 13.92 119.916 13.92C119.996 13.92 120.132 13.944 120.324 13.992C120.532 14.024 120.74 14.104 120.948 14.232C121.156 14.36 121.34 14.536 121.5 14.76C121.66 14.984 121.74 15.272 121.74 15.624C121.74 16.088 121.596 16.488 121.308 16.824C121.02 17.16 120.644 17.432 120.18 17.64C119.732 17.848 119.228 18 118.668 18.096C118.108 18.192 117.564 18.24 117.036 18.24ZM117.492 7.752C117.14 7.752 116.836 7.856 116.58 8.064C116.34 8.256 116.132 8.504 115.956 8.808C115.796 9.112 115.668 9.448 115.572 9.816C115.492 10.184 115.428 10.536 115.38 10.872C116.372 10.856 117.172 10.688 117.78 10.368C118.404 10.048 118.716 9.592 118.716 9C118.716 8.68 118.612 8.392 118.404 8.136C118.212 7.88 117.908 7.752 117.492 7.752Z" fill="white"/>
</svg>
