<svg width="87" height="36" viewBox="0 0 87 36" fill="none" xmlns="http://www.w3.org/2000/svg">
<path d="M10.5 34.7406C11.5534 29.7449 12.304 27.0036 14 22.2406C13.2162 21.1945 12.6708 20.9967 11.5 21.2406C6.40637 25.8297 3.74331 28.4975 1 34.2406V34.7406H10.5ZM10.5 34.7406C11.9513 35.3066 12.7153 35.324 14 34.7406M14 34.7406L17 19.7406C21.7693 14.1179 24.9825 11.9896 31 8.74059C32.145 9.0706 32.5862 9.34969 32.5 10.2406C29.2676 15.2525 27.7199 18.4042 25.5 24.7406V34.7406M14 34.7406H25.5M25.5 34.7406C26.7249 35.0721 27.2706 35.0634 28 34.7406M28 34.7406V24.2406C30.5056 17.773 32.4111 14.4035 36.5 8.74059C39.6884 5.84588 41.6656 4.67397 45.5 3.24059C47.9371 2.81239 49.2385 2.81365 51.5 3.24059C51.8233 4.2151 51.7872 4.76524 51.5 5.74059C45.013 11.7332 42.63 15.6788 39.5 23.2406V34.7406M28 34.7406H39.5M39.5 34.7406L43 21.7406C47.312 12.101 51.1763 7.80503 59.5 1.24059C63.6418 0.941329 66.0259 0.898978 70.5 1.24059C71.1185 2.49648 71.0684 3.14948 70.5 4.24059C63.0949 10.1634 60.0666 14.0043 55.5 21.2406L53 26.7406L57 22.2406C64.0109 11.9559 69.1866 8.08438 79 2.24059C81.3421 1.96993 82.657 2.00474 85 2.24059C85.6755 4.69797 85.7305 6.1187 85 8.74059C82.1373 13.4142 80.3156 15.9475 76.5 20.2406C65.3929 25.2761 59.2998 28.5897 48.5 34.7406M39.5 34.7406H48.5M48.5 34.7406C50.9321 34.8254 52.2335 34.8153 54.5 34.7406M54.5 34.7406C63.6115 30.0515 68.6288 27.2848 77.5 22.2406C78.0329 25.8724 78.1119 27.9424 77.5 31.7406C77.2655 32.9368 76.9046 33.5149 75.5 34.2406L54.5 34.7406Z" stroke="#99C18C"/>
</svg>
